<mxfile host="Electron" agent="Mozilla/5.0 (X11; Linux x86_64) AppleWebKit/537.36 (KHTML, like Gecko) draw.io/24.7.5 Chrome/126.0.6478.234 Electron/31.4.0 Safari/537.36" version="24.7.5">
  <diagram id="oQva_TCDhSViSduxhMt5" name="Page-1">
    <mxGraphModel dx="858" dy="572" grid="1" gridSize="10" guides="1" tooltips="1" connect="1" arrows="1" fold="1" page="1" pageScale="1" pageWidth="850" pageHeight="1100" math="0" shadow="0">
      <root>
        <mxCell id="0" />
        <mxCell id="1" parent="0" />
        <mxCell id="AUirae73bRO2SUTBNciw-2" value="NEXT_TODO" style="swimlane;swimlaneFillColor=default;" parent="1" vertex="1">
          <mxGeometry width="850" height="560" as="geometry" />
        </mxCell>
        <mxCell id="gwGQ3GaF1VL8fbFYvJNT-1" value="Api consumer&amp;nbsp;&lt;div&gt;(fron-end)&lt;/div&gt;" style="shape=umlActor;verticalLabelPosition=bottom;verticalAlign=top;html=1;outlineConnect=0;" parent="AUirae73bRO2SUTBNciw-2" vertex="1">
          <mxGeometry x="40" y="215" width="30" height="60" as="geometry" />
        </mxCell>
        <mxCell id="gwGQ3GaF1VL8fbFYvJNT-10" value="&lt;span style=&quot;font-weight: 400;&quot;&gt;Auth service&lt;/span&gt;" style="shape=folder;fontStyle=1;spacingTop=10;tabWidth=40;tabHeight=14;tabPosition=left;html=1;whiteSpace=wrap;fillColor=#60a917;fontColor=#ffffff;strokeColor=#2D7600;" parent="AUirae73bRO2SUTBNciw-2" vertex="1">
          <mxGeometry x="370" y="210" width="90" height="70" as="geometry" />
        </mxCell>
        <mxCell id="gwGQ3GaF1VL8fbFYvJNT-12" value="&lt;span style=&quot;font-weight: 400;&quot;&gt;User service&lt;/span&gt;" style="shape=folder;fontStyle=1;spacingTop=10;tabWidth=40;tabHeight=14;tabPosition=left;html=1;whiteSpace=wrap;fillColor=#60a917;fontColor=#ffffff;strokeColor=#2D7600;" parent="AUirae73bRO2SUTBNciw-2" vertex="1">
          <mxGeometry x="370" y="100" width="90" height="70" as="geometry" />
        </mxCell>
        <mxCell id="gwGQ3GaF1VL8fbFYvJNT-13" value="&lt;div&gt;&lt;span style=&quot;font-size: 12px; background-color: rgb(27, 29, 30);&quot;&gt;&lt;br&gt;&lt;/span&gt;&lt;/div&gt;" style="html=1;verticalAlign=bottom;endArrow=block;rounded=0;startArrow=classic;startFill=1;entryX=0;entryY=0;entryDx=90;entryDy=56;entryPerimeter=0;exitX=0;exitY=0;exitDx=0;exitDy=56;exitPerimeter=0;" parent="AUirae73bRO2SUTBNciw-2" source="gwGQ3GaF1VL8fbFYvJNT-10" target="zw2tTCB79owzt7xE1Ixs-14" edge="1">
          <mxGeometry y="-6" width="80" relative="1" as="geometry">
            <mxPoint x="280" y="275" as="sourcePoint" />
            <mxPoint x="205" y="235" as="targetPoint" />
            <mxPoint as="offset" />
          </mxGeometry>
        </mxCell>
        <mxCell id="gwGQ3GaF1VL8fbFYvJNT-14" value="&lt;span style=&quot;font-weight: 400;&quot;&gt;Task service&lt;/span&gt;" style="shape=folder;fontStyle=1;spacingTop=10;tabWidth=40;tabHeight=14;tabPosition=left;html=1;whiteSpace=wrap;fillColor=#60a917;fontColor=#ffffff;strokeColor=#2D7600;" parent="AUirae73bRO2SUTBNciw-2" vertex="1">
          <mxGeometry x="370" y="310" width="90" height="70" as="geometry" />
        </mxCell>
        <mxCell id="zw2tTCB79owzt7xE1Ixs-1" value="" style="html=1;verticalAlign=bottom;endArrow=block;rounded=0;startArrow=classic;startFill=1;edgeStyle=orthogonalEdgeStyle;" parent="AUirae73bRO2SUTBNciw-2" source="gwGQ3GaF1VL8fbFYvJNT-14" target="zw2tTCB79owzt7xE1Ixs-14" edge="1">
          <mxGeometry x="0.625" width="80" relative="1" as="geometry">
            <mxPoint x="280" y="385.0000000000001" as="sourcePoint" />
            <mxPoint x="180" y="235" as="targetPoint" />
            <mxPoint as="offset" />
          </mxGeometry>
        </mxCell>
        <mxCell id="zw2tTCB79owzt7xE1Ixs-3" value="" style="html=1;verticalAlign=bottom;endArrow=block;rounded=0;startArrow=classic;startFill=1;edgeStyle=orthogonalEdgeStyle;" parent="AUirae73bRO2SUTBNciw-2" source="gwGQ3GaF1VL8fbFYvJNT-12" target="zw2tTCB79owzt7xE1Ixs-14" edge="1">
          <mxGeometry x="0.8889" width="80" relative="1" as="geometry">
            <mxPoint x="280" y="105" as="sourcePoint" />
            <mxPoint x="170" y="100" as="targetPoint" />
            <mxPoint as="offset" />
          </mxGeometry>
        </mxCell>
        <mxCell id="zw2tTCB79owzt7xE1Ixs-5" value="&lt;div&gt;&lt;span style=&quot;font-weight: 400;&quot;&gt;Notification Service&lt;/span&gt;&lt;/div&gt;" style="shape=folder;fontStyle=1;spacingTop=10;tabWidth=40;tabHeight=14;tabPosition=left;html=1;whiteSpace=wrap;fillColor=#f0a30a;fontColor=#000000;strokeColor=#BD7000;" parent="AUirae73bRO2SUTBNciw-2" vertex="1">
          <mxGeometry x="630" y="310" width="90" height="70" as="geometry" />
        </mxCell>
        <mxCell id="zw2tTCB79owzt7xE1Ixs-7" value="&lt;div&gt;&lt;span style=&quot;font-weight: 400;&quot;&gt;Analytics Service&lt;/span&gt;&lt;/div&gt;" style="shape=folder;fontStyle=1;spacingTop=10;tabWidth=40;tabHeight=14;tabPosition=left;html=1;whiteSpace=wrap;fillColor=#f0a30a;fontColor=#000000;strokeColor=#BD7000;" parent="AUirae73bRO2SUTBNciw-2" vertex="1">
          <mxGeometry x="670" y="120" width="90" height="70" as="geometry" />
        </mxCell>
        <mxCell id="zw2tTCB79owzt7xE1Ixs-10" value="&lt;div&gt;&lt;span style=&quot;font-weight: 400;&quot;&gt;Search Service&lt;/span&gt;&lt;/div&gt;" style="shape=folder;fontStyle=1;spacingTop=10;tabWidth=40;tabHeight=14;tabPosition=left;html=1;whiteSpace=wrap;fillColor=#f0a30a;fontColor=#000000;strokeColor=#BD7000;" parent="AUirae73bRO2SUTBNciw-2" vertex="1">
          <mxGeometry x="560" y="120" width="90" height="70" as="geometry" />
        </mxCell>
        <mxCell id="zw2tTCB79owzt7xE1Ixs-14" value="&lt;div&gt;&lt;span style=&quot;font-weight: 400;&quot;&gt;API Gateway&lt;/span&gt;&lt;/div&gt;" style="shape=folder;fontStyle=1;spacingTop=10;tabWidth=40;tabHeight=14;tabPosition=left;html=1;whiteSpace=wrap;fillColor=#e3c800;fontColor=#000000;strokeColor=#B09500;" parent="AUirae73bRO2SUTBNciw-2" vertex="1">
          <mxGeometry x="160" y="210" width="90" height="70" as="geometry" />
        </mxCell>
        <mxCell id="zw2tTCB79owzt7xE1Ixs-15" value="" style="endArrow=classic;startArrow=classic;html=1;rounded=0;" parent="AUirae73bRO2SUTBNciw-2" source="gwGQ3GaF1VL8fbFYvJNT-1" target="zw2tTCB79owzt7xE1Ixs-14" edge="1">
          <mxGeometry width="50" height="50" relative="1" as="geometry">
            <mxPoint x="110" y="280" as="sourcePoint" />
            <mxPoint x="160" y="230" as="targetPoint" />
          </mxGeometry>
        </mxCell>
        <mxCell id="zw2tTCB79owzt7xE1Ixs-16" value="HTTP/HTTPS" style="edgeLabel;html=1;align=center;verticalAlign=middle;resizable=0;points=[];" parent="zw2tTCB79owzt7xE1Ixs-15" vertex="1" connectable="0">
          <mxGeometry x="0.256" relative="1" as="geometry">
            <mxPoint x="-9" as="offset" />
          </mxGeometry>
        </mxCell>
        <mxCell id="wejnVk3FI1Maxq6TPGb0-1" value="&lt;span style=&quot;font-size: 11px; text-wrap: nowrap; background-color: rgb(24, 20, 29);&quot;&gt;TCP&lt;br&gt;&lt;/span&gt;&lt;br style=&quot;font-size: 11px; text-wrap: nowrap;&quot;&gt;&lt;span style=&quot;font-size: 11px; text-wrap: nowrap; background-color: rgb(24, 20, 29);&quot;&gt;registration,&lt;/span&gt;&lt;br style=&quot;font-size: 11px; text-wrap: nowrap;&quot;&gt;&lt;span style=&quot;font-size: 11px; text-wrap: nowrap; background-color: rgb(24, 20, 29);&quot;&gt;login,&lt;/span&gt;&lt;br style=&quot;font-size: 11px; text-wrap: nowrap;&quot;&gt;&lt;span style=&quot;font-size: 11px; text-wrap: nowrap; background-color: rgb(24, 20, 29);&quot;&gt;update password&lt;/span&gt;&lt;br style=&quot;font-size: 11px; text-wrap: nowrap;&quot;&gt;&lt;span style=&quot;font-size: 11px; text-wrap: nowrap; background-color: rgb(24, 20, 29);&quot;&gt;or&amp;nbsp;username,&amp;nbsp;&lt;/span&gt;&lt;div style=&quot;font-size: 11px; text-wrap: nowrap;&quot;&gt;authorization&lt;br&gt;&lt;/div&gt;" style="shape=note;whiteSpace=wrap;html=1;backgroundOutline=1;darkOpacity=0.05;" vertex="1" parent="AUirae73bRO2SUTBNciw-2">
          <mxGeometry x="270" y="160" width="90" height="100" as="geometry" />
        </mxCell>
        <mxCell id="wejnVk3FI1Maxq6TPGb0-5" value="" style="group;align=center;" vertex="1" connectable="0" parent="AUirae73bRO2SUTBNciw-2">
          <mxGeometry x="30" y="440" width="80" height="30" as="geometry" />
        </mxCell>
        <mxCell id="wejnVk3FI1Maxq6TPGb0-2" value="" style="ellipse;whiteSpace=wrap;html=1;fillColor=#60a917;fontColor=#ffffff;strokeColor=#2D7600;" vertex="1" parent="wejnVk3FI1Maxq6TPGb0-5">
          <mxGeometry y="5" width="20" height="20" as="geometry" />
        </mxCell>
        <mxCell id="wejnVk3FI1Maxq6TPGb0-3" value="Done" style="text;html=1;align=left;verticalAlign=middle;whiteSpace=wrap;rounded=0;" vertex="1" parent="wejnVk3FI1Maxq6TPGb0-5">
          <mxGeometry x="20" width="60" height="30" as="geometry" />
        </mxCell>
        <mxCell id="wejnVk3FI1Maxq6TPGb0-7" value="" style="group;align=center;" vertex="1" connectable="0" parent="AUirae73bRO2SUTBNciw-2">
          <mxGeometry x="30" y="470" width="80" height="30" as="geometry" />
        </mxCell>
        <mxCell id="wejnVk3FI1Maxq6TPGb0-8" value="" style="ellipse;whiteSpace=wrap;html=1;fillColor=#e3c800;fontColor=#000000;strokeColor=#B09500;" vertex="1" parent="wejnVk3FI1Maxq6TPGb0-7">
          <mxGeometry y="5" width="20" height="20" as="geometry" />
        </mxCell>
        <mxCell id="wejnVk3FI1Maxq6TPGb0-9" value="In progres" style="text;html=1;align=left;verticalAlign=middle;whiteSpace=wrap;rounded=0;" vertex="1" parent="wejnVk3FI1Maxq6TPGb0-7">
          <mxGeometry x="20" width="60" height="30" as="geometry" />
        </mxCell>
        <mxCell id="wejnVk3FI1Maxq6TPGb0-10" value="" style="group;align=center;" vertex="1" connectable="0" parent="AUirae73bRO2SUTBNciw-2">
          <mxGeometry x="30" y="500" width="80" height="30" as="geometry" />
        </mxCell>
        <mxCell id="wejnVk3FI1Maxq6TPGb0-11" value="" style="ellipse;whiteSpace=wrap;html=1;fillColor=#fa6800;fontColor=#000000;strokeColor=#C73500;" vertex="1" parent="wejnVk3FI1Maxq6TPGb0-10">
          <mxGeometry y="5" width="20" height="20" as="geometry" />
        </mxCell>
        <mxCell id="wejnVk3FI1Maxq6TPGb0-12" value="Todo" style="text;html=1;align=left;verticalAlign=middle;whiteSpace=wrap;rounded=0;" vertex="1" parent="wejnVk3FI1Maxq6TPGb0-10">
          <mxGeometry x="20" width="60" height="30" as="geometry" />
        </mxCell>
        <mxCell id="wejnVk3FI1Maxq6TPGb0-13" value="&lt;span style=&quot;font-size: 11px; text-wrap: nowrap; background-color: rgb(24, 20, 29);&quot;&gt;TCP&lt;br&gt;&lt;/span&gt;&lt;br style=&quot;font-size: 11px; text-wrap: nowrap;&quot;&gt;&lt;div style=&quot;font-size: 11px; text-wrap: nowrap;&quot;&gt;&lt;span style=&quot;background-color: rgb(24, 20, 29);&quot;&gt;create new user&lt;/span&gt;&lt;/div&gt;" style="shape=note;whiteSpace=wrap;html=1;backgroundOutline=1;darkOpacity=0.05;" vertex="1" parent="AUirae73bRO2SUTBNciw-2">
          <mxGeometry x="260" y="80" width="90" height="50" as="geometry" />
        </mxCell>
        <mxCell id="wejnVk3FI1Maxq6TPGb0-14" value="&lt;span style=&quot;font-size: 11px; text-wrap: nowrap; background-color: rgb(24, 20, 29);&quot;&gt;TCP&lt;br&gt;&lt;/span&gt;&lt;br style=&quot;font-size: 11px; text-wrap: nowrap;&quot;&gt;&lt;div style=&quot;font-size: 11px; text-wrap: nowrap;&quot;&gt;&lt;span style=&quot;background-color: rgb(24, 20, 29);&quot;&gt;create new task&lt;/span&gt;&lt;/div&gt;" style="shape=note;whiteSpace=wrap;html=1;backgroundOutline=1;darkOpacity=0.05;" vertex="1" parent="AUirae73bRO2SUTBNciw-2">
          <mxGeometry x="270" y="290" width="90" height="50" as="geometry" />
        </mxCell>
        <mxCell id="wejnVk3FI1Maxq6TPGb0-15" value="" style="html=1;verticalAlign=bottom;endArrow=block;rounded=0;startArrow=classic;startFill=1;edgeStyle=orthogonalEdgeStyle;" edge="1" parent="AUirae73bRO2SUTBNciw-2" source="zw2tTCB79owzt7xE1Ixs-5" target="gwGQ3GaF1VL8fbFYvJNT-14">
          <mxGeometry x="0.625" width="80" relative="1" as="geometry">
            <mxPoint x="770" y="385.02857142857135" as="sourcePoint" />
            <mxPoint x="425" y="330" as="targetPoint" />
            <mxPoint as="offset" />
          </mxGeometry>
        </mxCell>
        <mxCell id="wejnVk3FI1Maxq6TPGb0-16" value="&lt;span style=&quot;font-size: 11px; text-wrap: nowrap; background-color: rgb(24, 20, 29);&quot;&gt;TCP&lt;br&gt;&lt;/span&gt;&lt;br style=&quot;font-size: 11px; text-wrap: nowrap;&quot;&gt;&lt;div style=&quot;font-size: 11px; text-wrap: nowrap;&quot;&gt;&lt;span style=&quot;background-color: rgb(24, 20, 29);&quot;&gt;notify user about new task&lt;/span&gt;&lt;/div&gt;" style="shape=note;whiteSpace=wrap;html=1;backgroundOutline=1;darkOpacity=0.05;" vertex="1" parent="AUirae73bRO2SUTBNciw-2">
          <mxGeometry x="470" y="290" width="140" height="50" as="geometry" />
        </mxCell>
      </root>
    </mxGraphModel>
  </diagram>
</mxfile>
